<svg width="304" height="37" viewBox="0 0 304 37" fill="none" xmlns="http://www.w3.org/2000/svg">
<path d="M11.5479 1.94531C13.7321 1.94531 15.8184 2.36654 17.8057 3.20801C19.8106 4.03156 21.5835 5.21337 23.123 6.75293C24.6625 8.29253 25.8445 10.0653 26.668 12.0703C27.5093 14.0753 27.9297 16.1705 27.9297 18.3545C27.9296 20.5743 27.4914 22.6958 26.6143 24.7188C25.7549 26.7419 24.5911 28.488 23.123 29.9561C21.6729 31.4062 19.9361 32.57 17.9131 33.4473C15.89 34.3066 13.7679 34.7363 11.5479 34.7363H0V1.94531H11.5479ZM48.8223 1.94531C51.5614 1.94534 53.8975 2.91226 55.8311 4.8457C57.7826 6.7972 58.7588 9.14258 58.7588 11.8818C58.7588 13.5648 58.347 15.1497 57.5234 16.6357C56.7178 18.1216 55.6076 19.3214 54.1934 20.2344L59.457 34.7363H52.4746L47.748 21.792H38.375V34.7363H31.4463V1.94531H48.8223ZM97.4023 34.7363H62.9473L80.1885 2.45605L97.4023 34.7363ZM126.916 8.87402H107.875V14.8633H126.916V21.792H107.875V34.7363H100.946V1.94531H126.916V8.87402ZM161.344 8.87402H149.339V34.7363H142.41V8.87402H130.406V1.94531H161.344V8.87402ZM74.7344 28H85L80.1611 18.0586L74.7344 28ZM6.92871 27.8086H11.5479C14.1439 27.8086 16.3639 26.8861 18.208 25.042C20.0699 23.198 21.0009 20.9692 21.001 18.3555C21.001 15.7415 20.07 13.512 18.208 11.668C16.3639 9.80599 14.1439 8.875 11.5479 8.875H6.92871V27.8086ZM38.376 8.875V14.8906H48.8223C49.6458 14.8906 50.3535 14.5957 50.9443 14.0049C51.5352 13.4141 51.8301 12.7064 51.8301 11.8828C51.8301 11.0595 51.5348 10.3524 50.9443 9.76172C50.3535 9.1709 49.6458 8.875 48.8223 8.875H38.376Z" fill="white"/>
<path d="M203.672 1.63477H211.138L197.683 35.3652L188.069 11.3296L178.481 35.3652L165 1.63477H172.466L178.481 17.8286L184.47 1.63477H191.667L197.683 17.8286L203.672 1.63477ZM188.069 8.37549L197.683 32.4111L209.526 2.70898H204.451L197.683 20.9707L190.916 2.70898H185.249L178.481 20.9707L171.714 2.70898H166.611L178.481 32.4111L188.069 8.37549Z" fill="white"/>
<circle cx="230.638" cy="18.5" r="17.9" stroke="white" stroke-width="1.2"/>
<path d="M239.183 22.79V14.6309C239.183 10.7214 235.284 10.7321 235.284 10.7321H233.985V8.1326L230.086 12.0323L233.985 15.9311V13.3316C233.985 13.3316 234.527 13.3316 235.284 13.3316C236.43 13.3316 236.584 14.6309 236.584 14.6309V22.79C235.809 23.2404 235.284 24.067 235.284 25.029C235.284 26.4636 236.449 27.6285 237.884 27.6285C239.318 27.6285 240.483 26.4628 240.483 25.029C240.483 24.0695 239.957 23.2404 239.183 22.79ZM237.884 26.3291C237.167 26.3291 236.584 25.7475 236.584 25.0298C236.584 24.3129 237.166 23.7305 237.884 23.7305C238.602 23.7305 239.183 24.3129 239.183 25.0298C239.183 25.7483 238.602 26.3291 237.884 26.3291ZM223.586 14.5419V22.7001C223.586 26.6096 227.486 26.5997 227.486 26.5997H228.785V29.1992L232.684 25.3004L228.785 21.4007V24.0002C228.785 24.0002 228.243 24.0002 227.486 24.0002C226.34 24.0002 226.186 22.7009 226.186 22.7009V14.5427C226.961 14.0914 227.486 13.2648 227.486 12.3029C227.486 10.8682 226.321 9.70336 224.886 9.70336C223.452 9.70336 222.287 10.8682 222.287 12.3029C222.287 13.2631 222.811 14.0906 223.586 14.5419ZM224.886 13.6567C224.169 13.6567 223.587 13.0759 223.587 12.3573C223.587 11.6404 224.169 11.058 224.886 11.058C225.606 11.058 226.186 11.6404 226.186 12.3573C226.186 13.0767 225.605 13.6567 224.886 13.6567Z" fill="white"/>
<path d="M257.066 27.9666H276.107V34.8953H250.138V2.10474H257.066V27.9666ZM275.006 33.821V29.0676H255.965V3.17896H251.239V33.821H275.006Z" fill="white"/>
<path d="M303.076 9.03345H284.036V15.0222H303.076V21.9509H284.036V34.8953H277.107V2.10474H303.076V9.03345ZM301.975 16.1233H282.935V7.95923H301.975V3.20581L278.208 3.17896V33.821H282.935V20.8767H301.975V16.1233Z" fill="white"/>
</svg>
